<svg width="15" height="16" viewBox="0 0 15 16" fill="none" xmlns="http://www.w3.org/2000/svg">
<path d="M7.50004 0.820313C11.6421 0.820313 15 4.17818 15 8.32031C15 12.4625 11.6421 15.8203 7.50004 15.8203C3.35787 15.8203 1.5402e-08 12.4625 9.92214e-09 8.32031C4.4423e-09 4.17818 3.35787 0.820313 7.50004 0.820313Z" fill="#F73B95"/>
<path d="M7.51676 2.28516C10.8699 2.28516 13.5882 5.00343 13.5882 8.3566C13.5882 11.7097 10.8699 14.428 7.51676 14.428C4.1636 14.428 1.44531 11.7097 1.44531 8.3566C1.44531 5.00343 4.1636 2.28516 7.51676 2.28516Z" fill="#BD399C"/>
<path d="M7.51504 3.89063C9.98057 3.89063 11.9793 5.88932 11.9793 8.35493C11.9793 10.8205 9.98057 12.8192 7.51504 12.8192C5.04947 12.8192 3.05078 10.8205 3.05078 8.35493C3.05078 5.88932 5.04947 3.89063 7.51504 3.89063V3.89063Z" fill="#93388E"/>
<path d="M7.48492 5.25C9.16145 5.25 10.5206 6.60913 10.5206 8.2857C10.5206 9.96223 9.16145 11.3214 7.48492 11.3214C5.80839 11.3214 4.44922 9.96223 4.44922 8.2857C4.44922 6.60913 5.80839 5.25 7.48492 5.25V5.25Z" fill="#6030A2"/>
</svg>
