<svg width="22" height="24" viewBox="0 0 22 24" fill="none" xmlns="http://www.w3.org/2000/svg">
<g clip-path="url(#clip0_2389_2950)">
<path d="M21.0696 5.214C21.0476 2.314 18.6296 0 15.7296 0H6.27556C3.39656 0 0.985563 2.278 0.930563 5.156C0.917818 5.85473 1.04433 6.549 1.30272 7.19831C1.56111 7.84763 1.9462 8.439 2.43554 8.93793C2.92488 9.43686 3.50867 9.83335 4.15285 10.1043C4.79704 10.3752 5.48872 10.5152 6.18756 10.516H10.4106C10.7406 10.516 10.8346 10.966 10.5326 11.098L4.06056 13.936C3.12362 14.3515 2.32834 15.0315 1.77233 15.8925C1.21632 16.7535 0.923766 17.7581 0.930563 18.783C0.950563 21.685 3.36956 24 6.27156 24H8.48656C11.4096 24 13.8426 21.656 13.8376 18.734C13.8346 17.6873 13.5198 16.6653 12.9332 15.7983C12.3467 14.9314 11.5151 14.259 10.5446 13.867C10.4896 13.8441 10.4426 13.8055 10.4094 13.7561C10.3761 13.7067 10.3581 13.6487 10.3576 13.5891C10.3571 13.5296 10.374 13.4712 10.4064 13.4213C10.4387 13.3713 10.485 13.3319 10.5396 13.308L17.9446 10.062C18.8807 9.6457 19.6751 8.96526 20.2302 8.10411C20.7853 7.24295 21.077 6.23853 21.0696 5.214Z" fill="#8FDA92"/>
</g>
<defs>
<clipPath id="clip0_2389_2950">
<rect width="22" height="24" fill="white"/>
</clipPath>
</defs>
</svg>
