<svg width="512" height="512" viewBox="0 0 512 512" fill="none" xmlns="http://www.w3.org/2000/svg">
<path d="M256.001 0C397.385 0 512 114.615 512 256C512 397.385 397.385 512 256.001 512C114.615 512 0 397.385 0 256C0 114.615 114.615 0 256.001 0Z" fill="#F73B95"/>
<path d="M256.614 49.9844C371.068 49.9844 463.851 142.768 463.851 257.223C463.851 371.677 371.068 464.46 256.614 464.46C142.159 464.46 49.375 371.677 49.375 257.223C49.375 142.768 142.159 49.9844 256.614 49.9844Z" fill="#BD399C"/>
<path d="M256.607 104.842C340.763 104.842 408.987 173.064 408.987 257.223C408.987 341.382 340.763 409.603 256.607 409.603C172.448 409.603 104.227 341.382 104.227 257.223C104.227 173.064 172.448 104.842 256.607 104.842Z" fill="#93388E"/>
<path d="M255.392 151.158C312.618 151.158 359.011 197.55 359.011 254.777C359.011 312.002 312.618 358.395 255.392 358.395C198.166 358.395 151.773 312.002 151.773 254.777C151.773 197.55 198.166 151.158 255.392 151.158Z" fill="#6030A2"/>
</svg>
